<svg xmlns="http://www.w3.org/2000/svg" xmlns:xlink="http://www.w3.org/1999/xlink" id="eIWe7Fwj1gL1" viewBox="0 0 503.607 503.607" shape-rendering="geometricPrecision" text-rendering="geometricPrecision"><g transform="translate(-35 3)"><g><g><path d="M289.803,76.934c-92.328,0-167.869,75.541-167.869,167.869c0,9.233.839,18.466,2.518,26.859c0,4.197,5.036,7.554,9.233,6.715c4.197,0,7.554-5.036,6.715-9.233-.839-7.554-1.679-15.948-1.679-24.341c0-83.095,67.987-151.082,151.082-151.082s151.082,67.987,151.082,151.082-67.987,151.082-151.082,151.082c-37.546,0-72.902-13.128-100.64-38.692l47.211-47.211c15.018,12.315,33.579,18.755,53.429,18.755c46.164,0,83.934-37.77,83.934-83.934s-37.771-83.934-83.934-83.934-83.934,37.771-83.934,83.934c0,5.036,0,9.233,1.679,13.43c0,4.197,5.036,7.554,9.233,6.715c4.197,0,7.554-5.036,6.715-9.233-.839-3.357-.839-7.554-.839-10.912c0-36.931,30.216-67.148,67.148-67.148s67.148,30.216,67.148,67.148c0,36.931-30.216,67.148-67.148,67.148-15.558,0-29.913-4.784-41.581-13.815l24.479-24.479c5.017,2.993,10.867,4.721,17.102,4.721c18.466,0,33.574-15.108,33.574-33.574s-15.108-33.574-33.574-33.574-33.574,15.108-33.574,33.574c0,6.235,1.728,12.085,4.721,17.102l-30.74,30.74c0,0,0,0,0,0s0,0,0,0l-58.753,58.753c0,0,0,0,0,0s0,0,0,0l-30.216,30.216c-3.357,3.357-3.357,8.393,0,11.751c1.679,1.679,3.357,2.518,5.875,2.518s4.197-.839,5.875-2.518l24.414-24.414c30.456,28.223,70.69,43.719,112.399,43.719c92.328,0,167.869-74.702,167.869-167.869-.003-92.327-75.544-167.868-167.872-167.868Zm0,151.082c9.233,0,16.787,7.554,16.787,16.787s-7.554,16.787-16.787,16.787c-4.18,0-8.006-1.559-10.952-4.11-.243-.319-.503-.631-.798-.926s-.607-.555-.926-.798c-2.551-2.947-4.11-6.773-4.11-10.952-.001-9.234,7.553-16.788,16.786-16.788Z" style="&#10;    fill: #7E6FFF;&#10;"/><path d="M356.951,320.344c0,9.233,7.554,16.787,16.787,16.787s16.787-7.554,16.787-16.787-7.554-16.787-16.787-16.787-16.787,7.555-16.787,16.787Z" style="&#10;    fill: #7E6FFF;&#10;"/></g></g></g></svg>